<svg width="50" height="51" viewBox="0 0 50 51" fill="none" xmlns="http://www.w3.org/2000/svg">
<path d="M42.4904 29.6213L42.2588 29.7463C41.323 28.6107 39.7019 28.1707 38.4667 28.7967C38.4623 28.7988 38.4579 28.8012 38.4536 28.8034L37.9067 29.0978C37.2545 28.5456 36.4479 28.208 35.5967 28.1311C34.7456 28.0542 33.8915 28.2418 33.1509 28.6682L30.2061 30.2697H26.2875C25.439 30.2686 24.6016 30.0767 23.8373 29.7083L23.2982 29.4475C21.7635 28.7008 20.0521 28.3934 18.3535 28.5593C16.6548 28.7252 15.0353 29.3579 13.674 30.3875C13.6612 30.3973 13.6487 30.407 13.6368 30.4181L12.3354 31.5766C11.8435 32.0135 11.2621 32.3376 10.6319 32.5262L9.89278 30.0998C9.85616 29.9797 9.78193 29.8745 9.68103 29.7998C9.58012 29.7251 9.45789 29.6848 9.33233 29.6848H3.03809C2.95516 29.6848 2.87317 29.7024 2.79755 29.7364C2.72193 29.7704 2.6544 29.8202 2.59942 29.8822C2.54444 29.9443 2.50326 30.0174 2.47862 30.0966C2.45397 30.1758 2.44642 30.2593 2.45645 30.3416L4.5545 47.5447C4.57182 47.6868 4.64054 47.8176 4.74769 47.9125C4.85484 48.0074 4.99302 48.0598 5.13614 48.0598H14.577C14.6685 48.0598 14.7588 48.0383 14.8406 47.9971C14.9224 47.9559 14.9933 47.8961 15.0478 47.8225C15.1023 47.7489 15.1388 47.6636 15.1544 47.5734C15.1699 47.4831 15.1641 47.3905 15.1374 47.3029L13.8972 43.2332L17.7599 40.7918C18.2767 40.5058 18.8831 40.4274 19.4557 40.5724C19.4678 40.5754 19.48 40.5781 19.4923 40.5803L27.3496 42.0271C29.4849 42.4092 31.6865 42.0984 33.6325 41.14C33.6574 41.1278 33.6813 41.1137 33.7042 41.098L47.2944 31.7668C47.4175 31.6823 47.5037 31.5539 47.5354 31.408C47.567 31.262 47.5418 31.1095 47.4647 30.9815C46.9702 30.1579 46.1771 29.5569 45.2505 29.3035C44.3239 29.0501 43.3352 29.1639 42.4904 29.6213ZM39.0024 29.8389C39.7168 29.4811 40.6161 29.7744 41.1905 30.3225L36.037 33.1028L35.7343 33.2623C35.5711 32.799 35.3326 32.3657 35.0284 31.98L39.0024 29.8389ZM33.718 29.6938C33.7226 29.6912 33.7277 29.6887 33.7318 29.6859C34.1934 29.4191 34.7181 29.281 35.2512 29.2861C35.7843 29.2911 36.3063 29.439 36.7628 29.7144L34.1426 31.1252C33.6431 30.7606 33.0731 30.5041 32.4689 30.372L33.718 29.6938ZM5.6545 46.8879L3.69991 30.8566H8.89805L13.7857 46.8879H5.6545ZM33.0748 40.1075C31.3638 40.9404 29.4326 41.2088 27.5593 40.8739L19.7213 39.4306C18.8592 39.2177 17.9483 39.3412 17.1739 39.7758C17.1648 39.7808 17.1558 39.7862 17.1469 39.7919L13.5419 42.0709L10.9735 33.6479C11.7655 33.4093 12.4959 33.0008 13.1139 32.451L14.397 31.3084C15.5858 30.4147 16.9982 29.8664 18.4786 29.724C19.959 29.5816 21.4501 29.8505 22.7874 30.5013L23.3264 30.762C24.2499 31.2071 25.2616 31.4389 26.2868 31.4403H31.5139C32.282 31.4414 33.0258 31.71 33.6175 32.1999C34.2091 32.6898 34.6117 33.3704 34.7561 34.1249L30.9675 33.9535C29.5902 33.8916 28.2101 33.9554 26.8444 34.144C26.6917 34.1667 26.5541 34.2488 26.4615 34.3723C26.3689 34.4959 26.3289 34.651 26.3501 34.804C26.3712 34.957 26.4519 35.0954 26.5746 35.1891C26.6973 35.2829 26.852 35.3245 27.0052 35.3048C28.3001 35.1258 29.6086 35.0654 30.9145 35.1243L35.373 35.326C35.3819 35.326 35.3908 35.3266 35.3996 35.3266C35.555 35.3266 35.704 35.2648 35.8139 35.1549C35.9238 35.0451 35.9855 34.896 35.9855 34.7406C35.9855 34.6458 35.9815 34.5518 35.9758 34.4584L36.5872 34.1361L43.0471 30.6521C43.5432 30.3835 44.1141 30.2863 44.6712 30.3755C45.2283 30.4648 45.7402 30.7356 46.1275 31.1459L33.0748 40.1075Z" fill="black"/>
<path d="M7.51709 44.4639C7.51709 44.8287 7.62528 45.1854 7.82798 45.4887C8.03068 45.7921 8.31879 46.0286 8.65587 46.1682C8.99295 46.3078 9.36386 46.3443 9.7217 46.2732C10.0795 46.202 10.4082 46.0263 10.6662 45.7683C10.9242 45.5103 11.0999 45.1816 11.1711 44.8238C11.2423 44.4659 11.2057 44.095 11.0661 43.7579C10.9265 43.4208 10.69 43.1327 10.3867 42.93C10.0833 42.7273 9.72666 42.6191 9.36181 42.6191C8.87273 42.6197 8.40383 42.8142 8.058 43.16C7.71216 43.5059 7.51763 43.9748 7.51709 44.4639ZM9.36181 43.791C9.49489 43.791 9.62498 43.8305 9.73563 43.9044C9.84628 43.9783 9.93252 44.0834 9.98345 44.2064C10.0344 44.3293 10.0477 44.4646 10.0217 44.5951C9.99577 44.7257 9.93169 44.8455 9.83759 44.9396C9.74349 45.0337 9.6236 45.0978 9.49308 45.1238C9.36256 45.1498 9.22727 45.1364 9.10432 45.0855C8.98138 45.0346 8.87629 44.9483 8.80236 44.8377C8.72842 44.727 8.68896 44.5969 8.68896 44.4639C8.68927 44.2855 8.76027 44.1146 8.88639 43.9885C9.01251 43.8624 9.18347 43.7915 9.36181 43.7912V43.791Z" fill="black"/>
<path d="M29.4553 9.31861V7.38775C29.4497 6.21178 28.9787 5.08586 28.1452 4.25627C27.3118 3.42667 26.1836 2.96094 25.0077 2.96094C23.8317 2.96094 22.7036 3.42667 21.8701 4.25627C21.0366 5.08586 20.5656 6.21178 20.5601 7.38775V9.31861C20.5656 10.4946 21.0366 11.6205 21.8701 12.4501C22.7036 13.2797 23.8317 13.7454 25.0077 13.7454C26.1836 13.7454 27.3118 13.2797 28.1452 12.4501C28.9787 11.6205 29.4497 10.4946 29.4553 9.31861ZM21.7319 9.31861V7.38775C21.7367 6.52207 22.0839 5.69346 22.6977 5.083C23.3115 4.47253 24.142 4.12986 25.0077 4.12986C25.8733 4.12986 26.7038 4.47253 27.3176 5.083C27.9314 5.69346 28.2787 6.52207 28.2834 7.38775V9.31861C28.2787 10.1843 27.9314 11.0129 27.3176 11.6234C26.7038 12.2338 25.8733 12.5765 25.0077 12.5765C24.142 12.5765 23.3115 12.2338 22.6977 11.6234C22.0839 11.0129 21.7367 10.1843 21.7319 9.31861Z" fill="black"/>
<path d="M17.8387 25.8347H32.1768C32.3322 25.8347 32.4812 25.7729 32.5911 25.6631C32.701 25.5532 32.7627 25.4041 32.7627 25.2487V23.9038H42.5781C42.7335 23.9038 42.8826 23.8421 42.9924 23.7322C43.1023 23.6223 43.1641 23.4733 43.1641 23.3179V19.5148C43.1634 18.3988 42.738 17.325 41.9742 16.5114C41.2105 15.6977 40.1656 15.2054 39.052 15.1343C38.7395 15.1113 38.5788 15.3092 38.4485 15.4681C38.1893 15.7848 37.8612 16.0382 37.4892 16.2089C37.1172 16.3796 36.7112 16.4631 36.302 16.4531C35.8929 16.4431 35.4914 16.3399 35.1282 16.1512C34.765 15.9626 34.4496 15.6935 34.2062 15.3645C34.1502 15.2887 34.0769 15.2276 33.9923 15.1863C33.9077 15.1449 33.8144 15.1245 33.7203 15.1269C32.9592 15.144 32.2159 15.3608 31.5649 15.7557C31.1352 15.2559 30.6095 14.8475 30.019 14.5547C29.4286 14.2618 28.7853 14.0904 28.1274 14.0507C27.8247 14.0384 27.6716 14.2222 27.5232 14.4023C27.2191 14.774 26.8341 15.0713 26.3976 15.2717C25.9611 15.472 25.4846 15.5701 25.0044 15.5584C24.5243 15.5466 24.0531 15.4254 23.6269 15.204C23.2007 14.9826 22.8307 14.6668 22.545 14.2807C22.4892 14.2049 22.4158 14.1437 22.3312 14.1023C22.2466 14.061 22.1533 14.0407 22.0592 14.0432C20.7742 14.0729 19.5523 14.6059 18.6563 15.5276C18.5823 15.6032 18.5121 15.6817 18.4437 15.7612C17.8386 15.3929 17.1529 15.1776 16.4459 15.1341C16.1345 15.1111 15.9727 15.309 15.8425 15.4679C15.5833 15.7846 15.2552 16.038 14.8832 16.2087C14.5112 16.3794 14.1052 16.4629 13.696 16.4529C13.2869 16.443 12.8854 16.3397 12.5222 16.151C12.159 15.9624 11.8436 15.6933 11.6002 15.3643C11.5442 15.2886 11.4708 15.2276 11.3862 15.1862C11.3017 15.1449 11.2084 15.1245 11.1144 15.1267C9.96984 15.1558 8.88199 15.6309 8.08275 16.4506C7.2835 17.2703 6.8361 18.3699 6.83594 19.5148V23.3179C6.83594 23.4733 6.89767 23.6223 7.00755 23.7322C7.11744 23.8421 7.26647 23.9038 7.42188 23.9038H17.2527V25.2487C17.2527 25.4041 17.3145 25.5532 17.4244 25.6631C17.5342 25.7729 17.6833 25.8347 17.8387 25.8347ZM33.4701 16.3173C33.8314 16.7273 34.2755 17.056 34.7732 17.2816C35.2709 17.5072 35.8109 17.6246 36.3573 17.626C36.9038 17.6275 37.4443 17.5129 37.9432 17.2899C38.4421 17.0669 38.888 16.7406 39.2514 16.3324C40.0133 16.4474 40.7088 16.8317 41.2117 17.4155C41.7146 17.9994 41.9915 18.7442 41.9922 19.5148V22.7319H32.7627V18.9731C32.7633 18.1928 32.5777 17.4236 32.2212 16.7295C32.6041 16.5062 33.0296 16.3658 33.4701 16.3173ZM21.8066 15.2328C22.2118 15.7018 22.7129 16.0784 23.2762 16.3369C23.8394 16.5955 24.4516 16.7301 25.0714 16.7315C25.6911 16.733 26.304 16.6013 26.8684 16.3455C27.4329 16.0896 27.9358 15.7154 28.3432 15.2484C29.2429 15.3728 30.0672 15.8184 30.6642 16.5029C31.2611 17.1875 31.5904 18.0648 31.5912 18.9731V24.6628H18.4246V18.9731C18.4304 18.043 18.7784 17.1477 19.4022 16.4578C20.026 15.768 20.8819 15.3319 21.8066 15.2328ZM8.00781 22.7319V19.5148C8.01276 18.7253 8.30578 17.9648 8.83181 17.3761C9.35785 16.7874 10.0807 16.4111 10.8646 16.3177C11.2259 16.7276 11.67 17.0561 12.1677 17.2817C12.6653 17.5072 13.2052 17.6245 13.7515 17.6259C14.2979 17.6273 14.8383 17.5127 15.3371 17.2897C15.8359 17.0668 16.2817 16.7405 16.645 16.3324C17.0485 16.3927 17.4366 16.5297 17.7886 16.7359C17.4353 17.4287 17.2517 18.1954 17.2527 18.9731V22.7319H8.00781Z" fill="black"/>
<path d="M40.2689 11.0644V9.37422C40.2689 8.32237 39.8511 7.31359 39.1073 6.56982C38.3636 5.82605 37.3548 5.4082 36.3029 5.4082C35.2511 5.4082 34.2423 5.82605 33.4985 6.56982C32.7548 7.31359 32.3369 8.32237 32.3369 9.37422V11.0644C32.3369 12.1162 32.7548 13.125 33.4985 13.8688C34.2423 14.6125 35.2511 15.0304 36.3029 15.0304C37.3548 15.0304 38.3636 14.6125 39.1073 13.8688C39.8511 13.125 40.2689 12.1162 40.2689 11.0644ZM33.5088 11.0644V9.37422C33.5088 8.63317 33.8032 7.92247 34.3272 7.39846C34.8512 6.87446 35.5619 6.58008 36.3029 6.58008C37.044 6.58008 37.7547 6.87446 38.2787 7.39846C38.8027 7.92247 39.0971 8.63317 39.0971 9.37422V11.0644C39.0971 11.8054 38.8027 12.5161 38.2787 13.0401C37.7547 13.5641 37.044 13.8585 36.3029 13.8585C35.5619 13.8585 34.8512 13.5641 34.3272 13.0401C33.8032 12.5161 33.5088 11.8054 33.5088 11.0644Z" fill="black"/>
<path d="M17.663 11.0644V9.37422C17.663 8.85339 17.5604 8.33767 17.3611 7.85649C17.1618 7.37531 16.8696 6.9381 16.5014 6.56982C16.1331 6.20154 15.6959 5.90941 15.2147 5.7101C14.7335 5.51079 14.2178 5.4082 13.697 5.4082C13.1761 5.4082 12.6604 5.51079 12.1792 5.7101C11.6981 5.90941 11.2609 6.20154 10.8926 6.56982C10.5243 6.9381 10.2322 7.37531 10.0329 7.85649C9.83354 8.33767 9.73096 8.85339 9.73096 9.37422V11.0644C9.73096 11.5852 9.83354 12.1009 10.0329 12.5821C10.2322 13.0633 10.5243 13.5005 10.8926 13.8688C11.2609 14.237 11.6981 14.5292 12.1792 14.7285C12.6604 14.9278 13.1761 15.0304 13.697 15.0304C14.2178 15.0304 14.7335 14.9278 15.2147 14.7285C15.6959 14.5292 16.1331 14.237 16.5014 13.8688C16.8696 13.5005 17.1618 13.0633 17.3611 12.5821C17.5604 12.1009 17.663 11.5852 17.663 11.0644ZM10.9028 11.0644V9.37422C10.9028 8.63317 11.1972 7.92247 11.7212 7.39846C12.2452 6.87446 12.9559 6.58008 13.697 6.58008C14.438 6.58008 15.1487 6.87446 15.6727 7.39846C16.1967 7.92247 16.4911 8.63317 16.4911 9.37422V11.0644C16.4911 11.4313 16.4188 11.7946 16.2784 12.1336C16.138 12.4726 15.9322 12.7807 15.6727 13.0401C15.4133 13.2996 15.1052 13.5054 14.7662 13.6458C14.4272 13.7862 14.0639 13.8585 13.697 13.8585C13.33 13.8585 12.9667 13.7862 12.6277 13.6458C12.2887 13.5054 11.9807 13.2996 11.7212 13.0401C11.4618 12.7807 11.2559 12.4726 11.1155 12.1336C10.9751 11.7946 10.9028 11.4313 10.9028 11.0644Z" fill="black"/>
</svg>
