<svg width="24" height="24" viewBox="0 0 24 24" fill="none" xmlns="http://www.w3.org/2000/svg">
<path d="M2 10.4C1.77909 10.4 1.6 10.2209 1.6 9.99999L1.6 3.99999C1.6 3.77908 1.77909 3.59999 2.00001 3.59999L22 3.6C22.2209 3.6 22.4 3.77908 22.4 4V10C22.4 10.2209 22.2209 10.4 22 10.4L2 10.4ZM2.00001 20.4C1.77909 20.4 1.60001 20.2209 1.60001 20L1.6 14C1.6 13.7791 1.77909 13.6 2 13.6H22C22.2209 13.6 22.4 13.7791 22.4 14L22.4 20C22.4 20.2209 22.2209 20.4 22 20.4H2.00001Z" stroke="black" stroke-width="1.2"/>
</svg>
