<svg width="24" height="24" viewBox="0 0 21 21" fill="none" xmlns="http://www.w3.org/2000/svg">
<path d="M17.5 9.625H3.5V7H17.5V9.625ZM17.5 13.125H11.375V11.375H17.5V13.125ZM17.5 16.625H11.375V14.875H17.5V16.625ZM9.625 16.625H3.5V11.375H9.625V16.625ZM17.7888 4.08625L16.3363 2.625L14.875 4.08625L13.4138 2.625L11.9613 4.08625L10.5 2.625L9.03875 4.08625L7.58625 2.625L6.125 4.08625L4.66375 2.625L3.21125 4.08625L1.75 2.625V16.625C1.75 17.0891 1.93437 17.5342 2.26256 17.8624C2.59075 18.1906 3.03587 18.375 3.5 18.375H17.5C17.9641 18.375 18.4093 18.1906 18.7374 17.8624C19.0656 17.5342 19.25 17.0891 19.25 16.625V2.625L17.7888 4.08625Z" fill="#9FA2B4"/>
</svg>
