<svg width="24" height="24" viewBox="0 0 24 24" fill="none" xmlns="http://www.w3.org/2000/svg">
<path d="M2.5 3L21 21.5" stroke="black" stroke-width="1.5"/>
<path fill-rule="evenodd" clip-rule="evenodd" d="M19.1352 16.8067C20.8897 15.5836 22.2462 13.9199 23 12C21.3988 7.92183 17.0784 5 12 5C10.5841 5 9.2271 5.22713 7.97154 5.64312L8.9337 6.60528C9.9002 6.34229 10.9291 6.2 12 6.2C16.4402 6.2 20.1594 8.64618 21.6965 12C20.9799 13.5637 19.7889 14.93 18.2716 15.9432L19.1352 16.8067ZM5.14651 8.47493L4.29144 7.61987C2.81445 8.79169 1.66951 10.2948 1 12C2.60118 16.0782 6.92156 19 12 19C13.1304 19 14.2232 18.8552 15.2568 18.5852L14.2554 17.5838C13.5308 17.7252 12.7764 17.8 12 17.8C7.55984 17.8 3.84063 15.3538 2.30346 12C2.9258 10.6422 3.9058 9.43312 5.14651 8.47493ZM12.6233 15.9517C12.4202 15.9835 12.212 16 12 16C9.79086 16 8 14.2091 8 12C8 11.788 8.0165 11.5798 8.04827 11.3767L9.26246 12.5909C9.49278 13.663 10.337 14.5072 11.4091 14.7375L12.6233 15.9517ZM15.7428 13.4143C15.909 12.9746 16 12.4979 16 12C16 9.79086 14.2091 8 12 8C11.5021 8 11.0254 8.09098 10.5857 8.25723L11.5624 9.23399C11.705 9.21162 11.8511 9.2 12 9.2C13.5464 9.2 14.8 10.4536 14.8 12C14.8 12.1489 14.7884 12.295 14.766 12.4376L15.7428 13.4143Z" fill="black"/>
</svg>
