<svg width="50" height="51" viewBox="0 0 50 51" fill="none" xmlns="http://www.w3.org/2000/svg">
<g clip-path="url(#clip0)">
<path d="M43.5951 0.5H42.5198C42.0743 0.5 41.7134 0.861075 41.7134 1.30645C41.7134 1.75183 42.0743 2.1129 42.5198 2.1129H42.7886V48.8871H42.5198C42.0743 48.8871 41.7134 49.2482 41.7134 49.6936C41.7134 50.1389 42.0743 50.5 42.5198 50.5H43.5951C44.0406 50.5 44.4016 50.1389 44.4016 49.6936V1.30645C44.4016 0.861075 44.0405 0.5 43.5951 0.5Z" fill="black"/>
<path d="M33.9181 15.5537H11.7811C11.3356 15.5537 10.9746 15.9148 10.9746 16.3602C10.9746 16.8055 11.3356 17.1666 11.7811 17.1666H33.9179C34.3634 17.1666 34.7244 16.8055 34.7244 16.3602C34.7244 15.9148 34.3634 15.5537 33.9181 15.5537Z" fill="black"/>
<path d="M33.9181 28.457H11.7811C11.3356 28.457 10.9746 28.8181 10.9746 29.2635C10.9746 29.7089 11.3356 30.0699 11.7811 30.0699H33.9179C34.3634 30.0699 34.7244 29.7089 34.7244 29.2635C34.7244 28.8181 34.3634 28.457 33.9181 28.457Z" fill="black"/>
<path d="M33.9178 32.7578H24.9998C24.5543 32.7578 24.1934 33.1189 24.1934 33.5643C24.1934 34.0096 24.5543 34.3707 24.9998 34.3707H33.9178C34.3633 34.3707 34.7242 34.0096 34.7242 33.5643C34.7242 33.1189 34.3631 32.7578 33.9178 32.7578Z" fill="black"/>
<path d="M39.2943 0.5H13.9315C13.9045 0.5 13.8776 0.501398 13.8509 0.504086C13.8312 0.506129 13.8117 0.509462 13.7923 0.512903C13.7859 0.514086 13.7792 0.514624 13.7728 0.515914C13.7497 0.520538 13.7271 0.526452 13.7048 0.533011C13.7021 0.533871 13.6992 0.534301 13.6965 0.535161C13.6737 0.542043 13.6515 0.550323 13.6295 0.55914C13.6272 0.560108 13.6248 0.560753 13.6224 0.56172C13.6015 0.57043 13.5813 0.580215 13.5613 0.590645C13.5579 0.592366 13.5544 0.593763 13.5512 0.595484C13.5326 0.605484 13.5147 0.616559 13.497 0.627849C13.4924 0.630753 13.4877 0.633118 13.4833 0.636129C13.4667 0.647204 13.451 0.659355 13.4353 0.671613C13.4302 0.675699 13.4248 0.67914 13.4198 0.683333C13.4012 0.698602 13.3834 0.714839 13.3662 0.731828C13.3646 0.733441 13.3629 0.734731 13.3613 0.736344L5.83438 8.26323C5.83245 8.26516 5.83083 8.26742 5.8289 8.26935C5.81245 8.28613 5.79653 8.30344 5.78159 8.32161C5.77685 8.32742 5.77277 8.33366 5.76814 8.33957C5.75653 8.35441 5.74503 8.36935 5.73449 8.38505C5.73094 8.39032 5.72804 8.39591 5.7246 8.40129C5.71384 8.41817 5.7032 8.43516 5.69374 8.4529C5.69159 8.45688 5.68997 8.46097 5.68793 8.46495C5.67793 8.48441 5.66836 8.50398 5.65987 8.5243C5.65868 8.5271 5.65782 8.53011 5.65664 8.53301C5.64804 8.55452 5.63997 8.57624 5.6332 8.5986C5.63234 8.6014 5.6318 8.6043 5.63094 8.6072C5.62438 8.62946 5.61847 8.65193 5.61395 8.67495C5.61266 8.68129 5.61212 8.68774 5.61105 8.69409C5.60761 8.71366 5.60417 8.73312 5.60223 8.75312C5.59954 8.77978 5.59814 8.80667 5.59814 8.83366V49.6939C5.59814 50.1392 5.95911 50.5003 6.4046 50.5003H39.2942C39.7397 50.5003 40.1006 50.1392 40.1006 49.6939V1.30645C40.1007 0.861075 39.7397 0.5 39.2943 0.5ZM13.125 3.25333V8.02688H8.35159L13.125 3.25333ZM38.4878 48.8871H7.21105V9.63978H13.9315C14.377 9.63978 14.7379 9.27871 14.7379 8.83333V2.1129H38.4877V48.8871H38.4878Z" fill="black"/>
<path d="M17.1575 9.63976H33.9181C34.3635 9.63976 34.7245 9.27868 34.7245 8.83331C34.7245 8.38793 34.3635 8.02686 33.9181 8.02686H17.1575C16.712 8.02686 16.3511 8.38793 16.3511 8.83331C16.3511 9.27868 16.7121 9.63976 17.1575 9.63976Z" fill="black"/>
<path d="M33.9178 19.855H24.9998C24.5543 19.855 24.1934 20.2161 24.1934 20.6614C24.1934 21.1068 24.5543 21.4679 24.9998 21.4679H33.9178C34.3633 21.4679 34.7242 21.1068 34.7242 20.6614C34.7242 20.2161 34.3631 19.855 33.9178 19.855Z" fill="black"/>
<path d="M33.9178 24.1558H24.9998C24.5543 24.1558 24.1934 24.5168 24.1934 24.9622C24.1934 25.4076 24.5543 25.7687 24.9998 25.7687H33.9178C34.3633 25.7687 34.7242 25.4076 34.7242 24.9622C34.7242 24.5168 34.3631 24.1558 33.9178 24.1558Z" fill="black"/>
<path d="M20.699 34.3707C21.1445 34.3707 21.5055 34.0096 21.5055 33.5643C21.5055 33.1189 21.1445 32.7578 20.699 32.7578H11.7811C11.3356 32.7578 10.9746 33.1189 10.9746 33.5643V42.1664C10.9746 42.6118 11.3356 42.9729 11.7811 42.9729H20.699C21.1445 42.9729 21.5055 42.6118 21.5055 42.1664V36.7901C21.5055 36.3447 21.1445 35.9836 20.699 35.9836C20.2535 35.9836 19.8926 36.3447 19.8926 36.7901V41.36H12.5875V34.3707H20.699Z" fill="black"/>
<path d="M11.7811 25.7687H20.699C21.1445 25.7687 21.5055 25.4076 21.5055 24.9622C21.5055 24.5168 21.1445 24.1558 20.699 24.1558H11.7811C11.3356 24.1558 10.9746 24.5168 10.9746 24.9622C10.9746 25.4076 11.3357 25.7687 11.7811 25.7687Z" fill="black"/>
<path d="M28.5414 41.3599H24.9998C24.5543 41.3599 24.1934 41.7209 24.1934 42.1663C24.1934 42.6117 24.5543 42.9728 24.9998 42.9728H28.5414C28.9869 42.9728 29.3479 42.6117 29.3479 42.1663C29.3479 41.7209 28.9868 41.3599 28.5414 41.3599Z" fill="black"/>
<path d="M33.9178 37.0591H24.9998C24.5543 37.0591 24.1934 37.4202 24.1934 37.8655C24.1934 38.3109 24.5543 38.672 24.9998 38.672H33.9178C34.3633 38.672 34.7242 38.3109 34.7242 37.8655C34.7242 37.4202 34.3631 37.0591 33.9178 37.0591Z" fill="black"/>
<path d="M11.7811 21.4679H20.699C21.1445 21.4679 21.5055 21.1068 21.5055 20.6614C21.5055 20.2161 21.1445 19.855 20.699 19.855H11.7811C11.3356 19.855 10.9746 20.2161 10.9746 20.6614C10.9746 21.1068 11.3357 21.4679 11.7811 21.4679Z" fill="black"/>
</g>
<defs>
<clipPath id="clip0">
<rect width="50" height="50" fill="white" transform="translate(0 0.5)"/>
</clipPath>
</defs>
</svg>
