<svg width="50" height="51" viewBox="0 0 50 51" fill="none" xmlns="http://www.w3.org/2000/svg">
<g clip-path="url(#clip0)">
<path d="M43.4136 19.1665H20.1714C19.7669 19.1665 19.439 19.4944 19.439 19.8989C19.439 20.3034 19.7669 20.6313 20.1714 20.6313H43.4136C43.8181 20.6313 44.146 20.3034 44.146 19.8989C44.146 19.4944 43.8181 19.1665 43.4136 19.1665Z" fill="black"/>
<path d="M43.4136 24.7651H20.1714C19.7669 24.7651 19.439 25.0931 19.439 25.4976C19.439 25.9021 19.7669 26.23 20.1714 26.23H43.4136C43.8181 26.23 44.146 25.9021 44.146 25.4976C44.146 25.0931 43.8181 24.7651 43.4136 24.7651Z" fill="black"/>
<path d="M43.4136 30.3643H20.1714C19.7669 30.3643 19.439 30.6922 19.439 31.0967C19.439 31.5012 19.7669 31.8291 20.1714 31.8291H43.4136C43.8181 31.8291 44.146 31.5012 44.146 31.0967C44.146 30.6922 43.8181 30.3643 43.4136 30.3643Z" fill="black"/>
<path d="M45.74 12.7607H17.8449C15.496 12.7607 13.585 14.6717 13.585 17.0207V34.5614C13.585 36.9104 15.4959 38.8214 17.8449 38.8214H37.3968C37.6059 38.8214 37.8001 38.9154 37.9298 39.0796L44.2437 47.073C44.4926 47.3881 44.8557 47.5598 45.2358 47.5598C45.3771 47.5598 45.5209 47.536 45.6619 47.487C46.1821 47.3063 46.5183 46.8338 46.5183 46.2831V38.7486C48.4934 38.3797 50 36.6335 50 34.5614V17.0206C50 14.6717 48.0891 12.7607 45.74 12.7607ZM48.5352 34.5614C48.5352 36.0826 47.2976 37.336 45.7764 37.3554C45.3756 37.3605 45.0533 37.6869 45.0533 38.0878V45.7348L39.0793 38.1716C38.6702 37.6535 38.0569 37.3564 37.3968 37.3564H17.8449C16.3037 37.3564 15.0498 36.1025 15.0498 34.5613V17.0206C15.0498 15.4794 16.3036 14.2255 17.8449 14.2255H45.74C47.2812 14.2255 48.5352 15.4794 48.5352 17.0206V34.5614Z" fill="black"/>
<path d="M10.7904 24.8712C10.2895 24.9423 9.84082 25.2002 9.52715 25.5973L4.4958 31.967V25.5831C4.4958 25.1822 4.17354 24.8559 3.77275 24.8507C2.5002 24.8345 1.46484 23.7859 1.46484 22.5133V7.24365C1.46484 5.9543 2.51387 4.90527 3.80322 4.90527H28.0867C29.3761 4.90527 30.4251 5.9543 30.4251 7.24365V10.069C30.4251 10.4735 30.753 10.8015 31.1575 10.8015C31.562 10.8015 31.8899 10.4735 31.8899 10.069V7.24365C31.8899 5.14658 30.1838 3.44043 28.0867 3.44043H3.80322C1.70615 3.44043 0 5.14658 0 7.24365V22.5133C0 24.3362 1.30576 25.8764 3.03105 26.2363V32.7174C3.03105 33.2377 3.34863 33.6843 3.84023 33.855C3.97354 33.9013 4.10928 33.9237 4.24287 33.9237C4.60195 33.9237 4.94521 33.7614 5.18027 33.4639L10.6768 26.5053C10.7561 26.4048 10.8696 26.3396 10.9964 26.3215C11.3969 26.2646 11.6755 25.8939 11.6186 25.4934C11.5617 25.0929 11.1915 24.8141 10.7904 24.8712Z" fill="black"/>
</g>
<defs>
<clipPath id="clip0">
<rect width="50" height="50" fill="white" transform="translate(0 0.5)"/>
</clipPath>
</defs>
</svg>
