<?xml version="1.0" encoding="iso-8859-1"?>
<!-- Generator: Adobe Illustrator 16.0.0, SVG Export Plug-In . SVG Version: 6.00 Build 0)  -->
<!DOCTYPE svg PUBLIC "-//W3C//DTD SVG 1.1//EN" "http://www.w3.org/Graphics/SVG/1.1/DTD/svg11.dtd">
<svg version="1.1" id="Capa_1" xmlns="http://www.w3.org/2000/svg" xmlns:xlink="http://www.w3.org/1999/xlink" x="0px" y="0px"
	 width="121.513px" height="121.514px" viewBox="0 0 121.513 121.514" style="enable-background:new 0 0 121.513 121.514;"
	 xml:space="preserve">
<g>
	<g>
		<path d="M87.777,67.432c0.189-0.65,0.254-1.348,0.152-2.062c-0.447-3.158-4.795-31.043-19.42-37.469
			c-0.024-0.01-0.049-0.018-0.073-0.028c-1.397-0.917-2.968-1.603-4.569-1.995l-3.132,3.153l-3.037-3.188
			c-0.011,0.003-0.021,0.003-0.032,0.005c-1.642,0.393-3.251,1.099-4.68,2.06c-14.614,6.44-18.957,34.306-19.405,37.462
			c-0.101,0.715-0.037,1.412,0.153,2.062c-6.605,1.107-11.66,6.85-11.66,13.766c0,7.705,6.269,13.973,13.973,13.973h12.465
			l0.002,20.576c0,3.186,2.583,5.769,5.769,5.768c3.188,0,5.77-2.583,5.77-5.77L60.051,95.17h0.819l-0.001,20.574
			c0,3.187,2.583,5.77,5.77,5.77s5.771-2.583,5.771-5.77V95.17h13.06c7.705,0,13.972-6.268,13.972-13.973
			C99.438,74.281,94.384,68.538,87.777,67.432z M73.604,49.218c2.349,5.861,3.954,12.572,4.659,17.521
			c0.023,0.168,0.076,0.324,0.115,0.485h-5.232c0.285-0.97,0.458-2,0.458-3.106V49.218z M60.707,29.497h0.059l3.033,20.27
			l-3.033,4.149h-0.059l-3.033-4.149L60.707,29.497z M47.865,49.29v15.272c0,0.935,0.134,1.82,0.368,2.661h-5.1
			c0.039-0.161,0.09-0.317,0.114-0.485C43.946,61.81,45.534,55.134,47.865,49.29z M85.466,88.697H36.047c-4.136,0-7.5-3.364-7.5-7.5
			c0-4.137,3.364-7.5,7.5-7.5h49.419c4.137,0,7.5,3.363,7.5,7.5C92.966,85.333,89.603,88.697,85.466,88.697z"/>
		<polygon points="47.558,78.531 45.256,77.223 44.297,79.797 43.355,77.221 41.035,78.551 42.802,80.652 40.23,80.138 
			40.23,82.794 42.819,82.314 41.036,84.398 43.29,85.761 44.277,83.146 45.236,85.757 47.561,84.4 45.721,82.32 48.399,82.79 
			48.399,80.138 45.735,80.674 		"/>
		<polygon points="63.257,78.531 60.956,77.223 59.997,79.797 59.055,77.221 56.735,78.551 58.503,80.652 55.931,80.138 
			55.931,82.794 58.521,82.314 56.736,84.398 58.99,85.761 59.977,83.146 60.937,85.757 63.261,84.4 61.421,82.32 64.097,82.79 
			64.097,80.138 61.438,80.674 		"/>
		<polygon points="79.407,78.531 77.106,77.223 76.147,79.797 75.203,77.221 72.884,78.551 74.652,80.652 72.08,80.138 
			72.08,82.794 74.669,82.314 72.886,84.398 75.14,85.761 76.125,83.146 77.087,85.757 79.412,84.4 77.57,82.32 80.248,82.79 
			80.248,80.138 77.585,80.674 		"/>
		<circle cx="60.735" cy="12.574" r="12.574"/>
	</g>
</g>
<g>
</g>
<g>
</g>
<g>
</g>
<g>
</g>
<g>
</g>
<g>
</g>
<g>
</g>
<g>
</g>
<g>
</g>
<g>
</g>
<g>
</g>
<g>
</g>
<g>
</g>
<g>
</g>
<g>
</g>
</svg>
