<svg width="22" height="22" viewBox="0 0 22 22" fill="none" xmlns="http://www.w3.org/2000/svg">
<path d="M11.9171 2.74984C15.4738 2.74984 18.3338 5.62817 18.3338 9.1665C18.3338 11.7332 16.8396 13.924 14.6671 14.9507V19.2498H8.25045V16.4998H7.33379C6.31629 16.4998 5.50045 15.684 5.50045 14.6665V11.9165H4.12545C3.74045 11.9165 3.52045 11.4582 3.74045 11.174L5.50045 8.85484C5.67462 5.454 8.46129 2.74984 11.9171 2.74984ZM11.9171 0.916504C7.70962 0.916504 4.22629 4.0515 3.72212 8.15817L2.29212 10.0832H2.26462L2.24629 10.1107C1.74212 10.8073 1.67795 11.724 2.07212 12.4848C2.40212 13.1173 2.98879 13.5573 3.66712 13.6948V14.6665C3.66712 16.3623 4.84045 17.8015 6.41712 18.214V21.0832H16.5005V16.0415C18.7921 14.5107 20.1671 11.9715 20.1671 9.1665C20.1671 4.61067 16.4638 0.916504 11.9171 0.916504ZM12.8338 13.7498V12.3748C10.808 12.3748 9.16712 10.734 9.16712 8.70817C9.16712 7.9565 9.39629 7.25984 9.78129 6.68234L10.7805 7.6815C10.6246 7.99317 10.5421 8.3415 10.5421 8.70817C10.5421 9.97317 11.5688 10.9998 12.8338 10.9998V9.62484L14.8963 11.6873L12.8338 13.7498ZM15.8863 10.734L14.8871 9.73484C15.043 9.42317 15.1255 9.07484 15.1255 8.70817C15.1255 7.44317 14.0988 6.4165 12.8338 6.4165V7.7915L10.7713 5.729L12.8338 3.6665V5.0415C14.8596 5.0415 16.5005 6.68234 16.5005 8.70817C16.5005 9.45984 16.2713 10.1565 15.8863 10.734Z" fill="#9FA2B4"/>
</svg>
