<svg width="20" height="20" viewBox="0 0 20 20" fill="none" xmlns="http://www.w3.org/2000/svg">
<path d="M8.33333 1.6665V3.54984L10 4.65817V3.33317H18.3333V15.8332H14.1667V17.4998H20V1.6665H8.33333ZM6.25 4.1665L0 8.33317V17.4998H12.5V8.33317L6.25 4.1665ZM11.6667 4.99984V5.77484L13.0083 6.6665H13.3333V4.99984H11.6667ZM15 4.99984V6.6665H16.6667V4.99984H15ZM6.25 6.24984L10.8333 9.1665V15.8332H8.33333V10.8332H4.16667V15.8332H1.66667V9.1665L6.25 6.24984ZM15 8.33317V9.99984H16.6667V8.33317H15ZM15 11.6665V13.3332H16.6667V11.6665H15Z" fill="#9FA2B4"/>
</svg>
