<svg width="20" height="20" viewBox="0 0 20 20" fill="none" xmlns="http://www.w3.org/2000/svg">
<path d="M13 10C13 11.6569 11.6569 13 10 13C8.34315 13 7 11.6569 7 10C7 8.34315 8.34315 7 10 7C11.6569 7 13 8.34315 13 10Z" stroke="black" stroke-width="1.2"/>
<path d="M8.44347 1L7.97844 3.84894C7.11566 4.12971 6.33235 4.58533 5.67077 5.17374L2.98401 4.15199L1.42749 6.84796L3.64017 8.65712C3.54831 9.09035 3.49999 9.53955 3.49999 9.99999C3.49999 10.4604 3.54831 10.9096 3.64017 11.3428L1.42749 13.152L2.98401 15.848L5.67462 14.8297C6.33539 15.4164 7.11734 15.8708 7.97844 16.1511L8.44347 19H11.5565L12.0216 16.1511C12.8843 15.8703 13.6677 15.4147 14.3292 14.8263L17.016 15.848L18.5725 13.152L16.3598 11.3429C16.4517 10.9097 16.5 10.4604 16.5 10C16.5 9.53958 16.4517 9.09038 16.3598 8.65716L18.5725 6.84801L17.016 4.15204L14.3254 5.17031C13.6646 4.58356 12.8827 4.12917 12.0216 3.84894L11.5565 1H8.44347Z" stroke="black" stroke-width="1.2"/>
</svg>
