<svg xmlns="http://www.w3.org/2000/svg" xmlns:xlink="http://www.w3.org/1999/xlink" viewBox="0 0 901.39 979.96"><defs><style>.cls-1{fill:url(#Dégradé_sans_nom_2);}.cls-2{fill:url(#Ciel_1);}.cls-3{font-size:164.47px;fill:#0078be;font-family:AgencyFB-Bold, Agency FB;font-weight:700;letter-spacing:0.11em;}.cls-4{fill:url(#Ciel_1-2);}</style><linearGradient id="Dégradé_sans_nom_2" x1="548.93" y1="279.11" x2="64.94" y2="279.11" gradientUnits="userSpaceOnUse"><stop offset="0" stop-color="#7bb9e7"/><stop offset="0.08" stop-color="#72b4e4"/><stop offset="0.22" stop-color="#58a7db"/><stop offset="0.4" stop-color="#2f91ce"/><stop offset="0.57" stop-color="#0078be"/><stop offset="1" stop-color="#154f9e"/></linearGradient><linearGradient id="Ciel_1" x1="513.91" y1="714.65" x2="64.4" y2="714.65" xlink:href="#Dégradé_sans_nom_2"/><linearGradient id="Ciel_1-2" x1="513.69" y1="513.08" x2="963.19" y2="513.08" xlink:href="#Dégradé_sans_nom_2"/></defs><title>logo_kevinpackcode</title><g id="Calque_2" data-name="Calque 2"><path class="cls-1" d="M545.8,523.19v-63.1a276,276,0,0,1-53-2.2C258.91,425.35,142.46,97.62,121.63,36.25L61.81,35C115.38,304.61,309.56,511.06,545.8,523.19Z" transform="translate(-61.81 -35.04)"/><path class="cls-2" d="M513.91,459.57v65.95a228.23,228.23,0,0,0-49.25,2.29c-217.2,34-325.35,376.51-344.69,440.64L64.4,969.72C114.16,688,294.5,472.24,513.91,459.57Z" transform="translate(-61.81 -35.04)"/></g><g id="Calque_3" data-name="Calque 3"><text class="cls-3" transform="matrix(-0.17, 1.02, -0.98, -0.18, 527, 576.71)">CODE</text></g><g id="Calque_1" data-name="Calque 1"><path class="cls-4" d="M936.86,35H540c-14.55,0-26.34,16-26.34,35.67V991.13L578,542c2.4-16.77,13.25-28.88,25.86-28.88h333c14.54,0,26.33-16,26.33-35.67V70.71C963.19,51,951.4,35,936.86,35Zm-52,405.5h-279c-14.54,0-26.34-16-26.34-35.67V150.39c0-19.71,11.8-35.68,26.34-35.68H883.49c14.47,0,26.24,15.82,26.34,35.42l1.37,254.48C911.31,424.41,899.49,440.54,884.87,440.54Z" transform="translate(-61.81 -35.04)"/></g></svg>